**ABCDEFGHIJKLMNOPQRSTUVWXYZabcdefghijklmnopqrstuvwxyz**************************
**PARASOLID !"#$%&'()*+,-./:;<=>?@[\]^_`{|}~0123456789**************************
**PART1;
MC=unknown;
MC_MODEL=unknown;
MC_ID=unknown;
OS=unknown;
OS_RELEASE=unknown;
FRU=Parasolid 36.0.180;
APPL=Onshape;
SITE=unknown;
USER=unknown;
FORMAT=text;
GUISE=transmit;
KEY=BTGapi::writeModels_.xmt;
FILE=BTGapi::writeModels_.xmt;
DATE=2024-07-18T12:55:46 (UTC);
**PART2;
SCH=SCH_3600180_36001;
USFLD_SIZE=0;
**PART3;
**END_OF_HEADER*****************************************************************
T51 : TRANSMIT FILE created by modeller version 360018023 SCH_3600180_36001_1300
6231 0 12 36 CCCI7 lattice222 0 CCCI4 mesh1006 0 I8 polyline1008 0 CCCCCCCDI5 ow
ner1040 0 CCCI16 boundary_lattice222 0 CCCI13 boundary_mesh1006 0 I17 boundary_p
olyline1008 0 CCCA16 index_map_offset0 0 1 dA9 index_map82 0 A17 node_id_index_m
ap82 0 A20 schema_embedding_map82 0 A5 child12 0 A14 lowest_node_id0 0 1 dA16 me
sh_offset_data206 0 Z1 2837 2 3 0 0 0 0 0 0 0 1e3 1e-8 0 4 5 1 0 1 2 6 0 7 8 9 0
 0 10 11 12 0 0 0 0 0 0 0 81 255 1 2 2796 13 1 14 0 0 0 15 70 11 CI9 list_type0
 0 1 uI10 notransmit0 0 1 lCCCDCCDI12 finger_index0 0 1 dI12 finger_block1012 0
 CZ3 0 4 T1 0 0 6 20 1 16 16 13 255 6 137 0 1 0 17 0 0 18 0 50 255 7 2753 19 20
 21 0 0 --.0595598226964474 -.003834379836916925 .00508 .707106781186548 0 .7071
06781186547 0 -1 0 30 255 8 2726 0 11 22 0 0 --.0917331560297807 .00971228863425
182 .0372533333333334 .577350269189626 .577350269189626 -.577350269189626 29 255
 9 2718 0 12 23 0 -.0570198226964474 .04442562196758515 .00254 19 9 CCCCCCI5 fra
me230 0 CA5 owner12 0 Z10 48 0 1 18 0 24 0 V0 16 255 11 2724 25 ?26 0 27 8 0 0 1
 18 255 12 2715 28 29 0 30 9 ?1 81 1 28 2771 31 12 0 0 32 33 34 17 255 29 0 35 3
6 37 12 38 27 0 39 +18 30 2706 40 41 12 42 23 ?1 81 1 40 2773 31 30 0 0 33 43 44
 17 41 0 45 46 47 30 48 49 0 37 +18 42 2697 32 50 30 51 52 ?1 29 23 2709 0 30 52
 9 -.0544798226964474 .0418856219675852 0 29 52 2700 0 42 53 23 -.05447982269644
74 -.049554381641419 0 29 53 2691 0 51 54 52 -.0570198226964474 -.05209438164141
9 .00254 18 51 2688 55 56 42 57 53 ?1 29 54 2682 0 57 58 53 -.0595598226964474 .
04188562196758515 .00508 18 57 2679 33 26 51 59 54 ?1 29 58 2678 0 59 60 54 -.05
95598226964474 -.049554381641419 .00508 18 59 2675 43 61 57 62 58 ?1 29 60 2458
 0 62 63 58 .03696017730355265 .0418856219675852 0 18 62 2455 64 46 59 65 60 ?1
 29 63 2444 0 65 66 60 .0395001773035526 .0444256219675852 .00254 18 65 2441 67
 68 62 69 63 ?1 29 66 2432 0 69 70 63 -.0544798226964474 .0469656219675852 .0965
2 18 69 2430 71 72 65 73 66 ?1 29 70 2429 0 73 74 66 -.0544798226964474 .0469656
219675852 .00508 18 73 2427 75 76 69 77 70 ?1 29 74 2426 0 77 78 70 .03696017730
355265 .0469656219675852 .00508 18 77 2423 79 80 73 81 74 ?1 29 78 2422 0 81 82
 74 .03696017730355265 .0469656219675852 .09652 18 81 2419 83 84 77 85 78 ?1 29
 82 2408 0 85 86 78 .03696017730355265 -.054634381641419 .09652 18 85 2405 87 88
 81 89 82 ?1 29 86 2394 0 89 90 82 .03950017730355265 .0444256219675852 .09906 1
8 89 2391 91 92 85 93 86 ?1 29 90 2390 0 93 94 86 .03950017730355265 -.052094381
641419 .09906 18 93 2387 95 96 89 97 90 ?1 29 94 2380 0 97 98 90 -.0595598226964
474 .04188562196758515 .09652 18 97 2378 99 100 93 101 94 ?1 29 98 2367 0 101 10
2 94 -.0570198226964474 -.052094381641419 .09906 18 101 2365 103 104 97 105 98 ?
1 29 102 2364 0 105 106 98 -.0544798226964474 -.054634381641419 .09652 18 105 23
61 107 108 101 109 102 ?1 29 106 2360 0 109 110 102 -.0595598226964474 -.0495543
81641419 .09652 18 109 2357 111 112 105 113 106 ?1 29 110 2350 0 113 114 106 -.0
544798226964474 -.049554381641419 .1016 18 113 2348 115 116 109 117 110 ?1 29 11
4 2346 0 117 118 110 -.0544798226964474 .0418856219675852 .1016 18 117 2344 119
 120 113 121 114 ?1 29 118 2343 0 121 122 114 .03696017730355265 .04188562196758
52 .1016 18 121 2340 123 124 117 125 118 ?1 29 122 2339 0 125 126 118 .036960177
30355265 -.049554381641419 .1016 18 125 2336 127 128 121 129 122 ?1 29 126 2108
 0 129 130 122 .04204017730355265 -.049554381641419 .09652 18 129 2106 131 132 1
25 133 126 ?1 29 130 2104 0 133 134 126 .04204017730355265 -.049554381641419 .00
508 18 133 2102 135 136 129 137 130 ?1 29 134 2100 0 137 138 130 .04204017730355
265 .04188562196758515 .09652 18 137 2098 139 140 133 141 134 ?1 29 138 2097 0 1
41 142 134 .04204017730355265 .04188562196758515 .00508 18 141 2095 143 144 137
 145 138 ?1 29 142 2065 0 145 146 138 .03696017730355265 -.049554381641419 0 18
 145 2063 147 148 141 149 142 ?1 29 146 2043 0 149 150 142 -.0544798226964474 -.
054634381641419 .00508 18 149 2041 151 152 145 153 146 ?1 29 150 2037 0 153 154
 146 .03696017730355265 -.054634381641419 .00508 18 153 2035 155 156 149 157 150
 ?1 29 154 2026 0 157 158 150 -.0469648543566888 -.054634381641419 .00508 18 157
 2023 159 160 153 161 154 ?1 29 158 2022 0 161 162 154 -.02963049674327915 -.054
634381641419 .00508 18 161 2019 163 164 157 165 158 ?1 29 162 1938 0 165 166 158
 .00210074139609569 -.054634381641419 .0225444119423628 18 165 1936 167 168 161
 169 162 ?1 29 166 1817 0 169 170 162 .00197567208116104 -.054634381641419 .0516
162031654186 18 169 1815 171 172 165 173 166 ?1 29 170 1699 0 173 174 166 .00219
774063529597 -.054634381641419 .0822881699725081 18 173 1697 175 176 169 177 170
 ?1 29 174 1584 0 177 178 170 -.050975876737292 -.054634381641419 .0151065643876
791 18 177 1582 179 180 173 181 174 ?1 29 178 1472 0 181 182 174 -.0509922293561
035 -.054634381641419 .0459736362099648 18 181 1470 183 184 177 185 178 ?1 29 18
2 1278 0 185 186 178 -.0595598226964474 -.01355611657796554 .02207769099333475 1
8 185 1276 187 188 181 189 182 ?1 29 186 1173 0 189 190 182 -.0595598226964474 .
0368616962161679 .02110738048669865 18 189 1171 191 192 185 193 186 ?1 29 190 10
72 0 193 194 186 -.0595598226964474 .00966851359977614 .0478330999612808 18 193
 1070 195 196 189 197 190 ?1 29 194 974 0 197 198 190 -.0595598226964474 -.01360
58243016745 .0753531381487846 18 197 972 199 200 193 201 194 ?1 29 198 879 0 201
 202 194 -.0595598226964474 .0368603162853669 .0749812424182892 18 201 877 203 2
04 197 205 198 ?1 29 202 787 0 205 206 198 -.0465410019907222 .0469656219675852
 .0214287359267473 18 205 785 207 208 201 209 202 ?1 29 206 697 0 209 210 202 .0
096066285193353 .0469656219675852 .02189213651601775 18 209 695 211 212 205 213
 206 ?1 29 210 546 0 213 214 206 .00962809808685839 .0469656219675852 .076840706
1696053 18 213 544 215 216 209 217 210 ?1 29 214 200 0 217 218 210 .005542930244
2925 -.0002854790780377 .1016 18 217 198 219 220 213 221 214 ?1 29 218 238 0 221
 222 214 -.0206359814157513 -.000285479078037718 .1016 18 221 224 223 224 217 22
5 218 ?1 29 222 584 0 225 226 218 .034984499587273 .0469656219675852 .0768407061
696053 18 225 570 227 228 221 229 222 ?1 29 226 732 0 229 230 222 .0350019215343
245 .0469656219675852 .02213404108233325 18 229 718 231 232 225 233 226 ?1 29 23
0 822 0 233 234 226 -.02115791629226195 .0469656219675852 .02142873592674735 18
 233 808 235 236 229 237 230 ?1 29 234 913 0 237 238 230 -.0595598226964474 .011
47120889139662 .0749812424182892 18 237 898 239 240 233 241 234 ?1 29 238 1008 0
 241 242 234 -.0595598226964474 -.03899493169564355 .0753531381487846 18 241 993
 243 244 237 245 238 ?1 29 242 1106 0 245 246 238 -.0595598226964474 -.015633285
44422305 .0478330999612808 18 245 1091 247 248 241 249 242 ?1 29 246 1207 0 249
 250 242 -.0595598226964474 .0114659688259954 .02135635918426475 18 249 1192 251
 252 245 253 246 ?1 29 250 1312 0 253 254 246 -.0595598226964474 -.0390634986795
6735 .0215545238186421 18 253 1297 255 256 249 257 250 ?1 29 254 1506 0 257 258
 250 -.0256031217438644 -.054634381641419 .0459736362099648 18 257 1491 259 260
 253 261 254 ?1 29 258 1618 0 261 262 254 -.02561947436267595 -.054634381641419
 .0151065643876791 18 261 1603 263 264 257 265 258 ?1 29 262 1733 0 265 266 258
 .02758189090292845 -.054634381641419 .081838893469481 18 265 1718 267 268 261 2
69 262 ?1 29 266 1851 0 269 270 262 .0273717609682291 -.054634381641419 .0518557
886322825 18 269 1836 271 272 265 273 266 ?1 29 270 1972 0 273 0 266 .0274898490
08337 -.054634381641419 .0225444119423628 18 273 1957 274 275 269 0 270 ?1 81 1
 274 1977 31 273 0 0 167 276 277 17 275 0 278 168 168 273 279 280 0 281 -15 255
 278 1964 0 275 282 0 17 168 0 278 275 275 165 281 283 0 279 -17 279 0 284 281 2
81 165 275 280 0 0 +16 280 1937 285 ?279 283 286 287 0 0 1 17 281 0 284 279 279
 273 168 283 0 0 +15 284 1934 0 279 288 289 16 283 1940 290 ?281 291 280 292 0 0
 1 81 1 290 1981 31 283 0 0 285 155 293 16 291 2036 294 ?295 296 283 297 0 0 1 3
1 255 292 1942 0 283 287 297 0 +.01479529520221524 -.054634381641419 .0221725199
3715765 0 1 0 0 0 1 .0127 31 287 1939 0 280 298 292 0 +.01479529520221524 -.0546
34381641419 .02291630394756795 0 1 0 0 0 1 .0127 30 297 2038 0 291 292 299 0 +.0
3696017730355265 -.054634381641419 .1016 0 0 1 30 299 2040 0 296 297 300 0 +-.00
875982269644738 -.054634381641419 .00508 1 0 0 16 296 2039 301 ?156 302 291 299
 0 0 1 30 300 2044 0 302 299 303 0 +-.0544798226964474 -.054634381641419 .1016 0
 0 -1 16 302 2362 304 ?152 305 296 300 0 0 1 30 303 2047 0 305 300 306 0 +-.0087
5982269644738 -.054634381641419 .00508 1 0 0 16 305 2045 307 ?308 309 302 303 0
 0 1 38 12 CCCCCCCCCCCA17 intersection_data204 0 Z306 2052 0 309 303 310 0 +311
 312 313 314 315 316 16 309 2050 317 ?164 318 305 306 0 0 1 30 310 2066 0 318 30
6 319 0 +.03696017730355265 -.054634381641419 0 0 -1 0 50 311 2198 320 321 322 3
23 324 --.00875982269644738 -.054634381641419 .00508 0 .707106781186548 .7071067
81186548 1 0 0 54 255 312 1617 0 325 326 327 328 +-.03829767554998395 -.05463438
1641419 .0151065643876791 1 0 0 .000743784010410309 .0127 0 0 -1 40 255 7 313 0
 1 7 .000630004900937752 .342362334930305 ??-.0469648543566888 -.054634381641419
 .00508 -.0442693433817801 -.0528436311384326 .00328924949701362 -.0408873745992
0655 -.0517938161327407 .002239434491321685 -.0372562792735997 -.051606482216764
3 .002052100575345305 -.03375868527022555 -.0522781626393829 .00272378099796392
 -.03076530242803765 -.0537294227661868 .004175041124767775 -.02963049674327915
 -.054634381641419 .00508 41 3 CI8 term_use0 0 1 cCZ1 314 L?-.0469648543566888 -
.054634381641419 .00508 41 1 315 L?-.02963049674327915 -.054634381641419 .00508
 204 2 17 INTERSECTION_DATA17 Intersection data7 uv_type0 0 1 u6 values0 1 1 fT2
8 316 4 -.03820503166024145 -24532694666934e-31 0 -.751116169639208 -.0355095206
853327 .00253250364814978 .150391963552079 -.489528782775671 -.0321275519027592
 .004017166267182105 .217276430852402 -.2053535671365245 -.0284964565771523 .004
28209643184836 .2279135584679225 .0820918796507326 -.02499886257377815 .00333219
686860063 .1880339676682505 .365483401337852 -.02200547973159025 .00127980511474
3312 .0825959942484335 .634904026185675 -.02087067404683175 -12266347333467e-31
 0 .751116169639208 14 255 325 1611 329 ?330 331 332 6 312 -0 0 330 331 24 54 32
6 1732 0 330 333 312 0 +.0148898157691124 -.054634381641419 .0820635317209945 .9
99843407796331 0 -.0176963240877998 -.0003882865610802155 .0127 -.01769632408779
98 0 -.999843407796331 54 327 1505 0 331 312 334 0 +-.038297675549984 -.05463438
1641419 .0459736362099648 1 0 0 .0003718920052051615 .0127 0 0 -1 141 255 328 30
6 328 328 312 14 331 1499 335 ?325 336 337 6 327 -0 0 325 336 24 53 255 334 1403
 0 336 327 338 0 +-.038297675549984 -.054634381641419 .082047201693058 .0127 1 0
 0 0 0 -1 14 336 1397 339 ?331 340 341 6 334 -0 0 331 340 24 54 338 1311 0 340 3
34 342 0 +-.0595598226964474 -.02630980762876575 .02181610740598845 0 -.99978972
7632039 -.020506109368987 -.000459844914402688 .01276465897459592 0 .02050610936
8987 -.999789727632039 14 340 1305 343 ?336 344 345 6 338 -0 0 336 344 24 54 342
 1206 0 344 338 346 0 +-.0595598226964474 .02416383252108165 .0212318698354817 0
 -.999951944647561 .00980348894843665 .0001968755521896715 .0127 0 -.00980348894
843665 -.999951944647561 14 344 1200 347 ?340 348 349 6 342 -0 0 340 348 24 54 3
46 1105 0 348 342 350 0 +-.0595598226964474 -.002982385922223565 .04783309996128
08 0 -1 0 -.001115679740905762 .0127 0 0 -1 14 348 1099 351 ?344 352 353 6 346 -
0 0 344 352 24 54 350 1007 0 352 346 354 0 +-.0595598226964474 -.026300377998659
65 .0753531381487846 0 -1 0 -.000371895730495453 .0127 0 0 -1 14 352 1001 355 ?3
48 356 357 6 350 -0 0 348 356 24 54 354 912 0 356 350 358 0 +-.0595598226964474
 .02416576258838175 .0749812424182892 0 -1 0 .000371895730495453 .0127 0 0 -1 14
 356 906 359 ?352 360 361 6 354 -0 0 352 360 24 54 358 820 0 360 354 362 0 --.03
384945914149135 .0469656219675852 .0214287359267473 -1 0 0 -.000463400589270413
 .0127 0 0 1 14 360 814 363 ?356 364 365 6 358 +0 0 356 364 24 54 362 730 0 364
 358 366 0 -.0223042750268299 .0469656219675852 .0220130887991755 -.999954634873
387 0 -.00952513491935108 .000212470505974415 .0127 -.00952513491935108 0 .99995
4634873387 14 364 724 367 ?360 368 369 6 362 +0 0 360 368 24 53 366 651 0 368 36
2 370 0 +-.03310567140579225 .0469656219675852 .0768407061696053 .01269346891759
24 1 0 0 0 0 1 14 368 645 371 ?364 372 373 6 366 -0 0 364 372 24 54 370 582 0 37
2 366 374 0 +.0223062988370657 .0469656219675852 .0768407061696053 -1 0 0 .00074
3791460990906 .0127 0 0 1 14 372 576 375 ?368 376 377 6 370 -0 0 368 376 24 53 3
74 508 0 376 370 378 0 +-.00847176233103391 .02814385667836395 0 .0127 1 0 0 0 1
 0 14 376 502 379 ?372 380 381 6 374 -0 0 372 380 24 53 378 451 0 380 374 382 0
 -.0194508731365204 -.02756396494805815 0 .0127 1 0 0 0 1 0 14 380 445 383 ?376
 384 385 6 378 +0 0 376 384 24 53 382 396 0 384 378 386 0 --.0353766977787018 -.
0269264355301857 0 .01269469113661906 1 0 0 0 1 0 14 384 390 387 ?380 388 389 6
 382 +0 0 380 388 24 53 386 343 0 388 382 390 0 +.04204017730355265 -.0048542143
8163285 .0280734630509387 .0127 0 0 -1 0 -1 0 14 388 337 391 ?384 392 393 6 386
 -0 0 384 392 24 53 390 292 0 392 386 394 0 +.04204017730355265 -.00460378940700
526 .0769243463873863 .01183849025141024 0 121899265865775e-30 -1 0 1 1218992658
65775e-30 14 392 286 395 ?388 396 397 6 390 -0 0 388 396 24 54 394 236 0 396 390
 398 0 +-.00754652558572939 -.0002854790780377025 .1016 1 1837770881429375e-31 0
 .000285479078037699 .0130925685879468 -1837770881429375e-31 1 0 14 396 230 399
 ?392 400 401 6 394 -0 0 392 400 24 50 398 3 0 402 394 403 0 +-.0087598226964473
7 -.00383437983691692 .1016 0 0 1 1 0 0 14 402 1 404 ?400 405 406 6 398 +0 0 400
 405 24 50 403 108 0 400 398 407 0 +-.00875982269644737 -.00383437983691692 0 0
 0 1 1 0 0 14 400 68 408 ?396 402 409 6 403 -0 0 396 402 24 50 407 129 0 405 403
 410 0 +.04204017730355265 -.003834379836916925 .1016 1 0 0 0 0 -1 14 405 122 41
1 ?402 288 412 6 407 +0 0 402 288 24 50 410 130 0 288 407 413 0 +-.0087598226964
4738 -.054634381641419 .1016 0 1 0 0 0 1 14 288 124 414 ?405 415 284 6 410 -0 0
 405 415 24 50 413 131 0 415 410 322 0 +-.0595598226964474 -.003834379836916925
 .1016 1 0 0 0 0 -1 14 415 126 416 ?288 17 417 6 413 -0 0 288 17 24 50 322 132 0
 17 413 311 0 +-.00875982269644738 .0469656219675852 .1016 0 1 0 0 0 1 14 17 128
 418 ?415 0 419 6 322 +0 0 415 0 24 81 1 418 2797 420 17 421 0 0 416 422 15 419
 783 0 423 17 424 13 24 49 0 0 0 0 0 0 10 17 17 423 0 419 425 425 205 236 426 0
 0 +15 424 693 0 427 17 428 17 427 0 424 429 429 209 232 430 0 0 +15 428 630 0 4
31 17 432 17 431 0 428 431 431 0 433 434 0 0 -15 432 552 0 435 17 436 17 435 0 4
32 437 437 225 216 438 0 0 -15 436 127 0 72 17 0 17 72 0 436 84 76 69 439 440 0
 441 +17 84 0 436 442 72 81 441 443 0 444 +17 76 0 436 72 442 73 445 446 0 36 +1
7 439 0 447 39 448 73 72 440 0 0 -16 440 2431 449 ?72 446 450 451 0 0 1 17 441 0
 452 453 454 69 84 443 0 448 -15 452 2487 0 454 455 0 17 453 0 452 456 441 117 4
57 458 0 459 -17 454 0 452 441 460 81 92 461 0 0 -16 443 2436 462 ?84 463 446 46
4 0 0 1 17 448 0 447 439 465 69 466 467 0 457 -15 447 2485 0 39 468 0 17 465 0 4
47 448 26 97 469 470 0 466 -17 466 0 471 459 457 97 448 467 0 472 +16 467 2507 4
73 ?466 474 458 475 0 0 1 17 457 0 471 466 459 69 453 458 0 0 +15 471 2489 0 457
 476 0 17 459 0 471 457 466 117 472 477 0 478 -16 458 2508 479 ?457 467 477 480
 0 0 1 81 1 479 2621 31 458 0 0 473 481 482 16 477 2515 481 ?472 458 483 484 0 0
 1 30 480 2551 0 458 484 475 0 --.0544798226964474 .04442562196758515 .09906 -21
1525895502192e-29 -.707106781186548 .707106781186548 30 484 2552 0 477 485 480 0
 --.0595598226964474 .04188562196758515 .09652 .707106781186547 105762947751096e
-29 .707106781186548 30 475 2550 0 467 480 486 0 +-.0595598226964474 .0418856219
6758515 .09652 -.707106781186548 -.707106781186548 0 30 486 2549 0 474 475 487 0
 +-.0256931560297807 .0757522886342519 .03386666666666665 -.577350269189626 -.57
7350269189626 -.577350269189626 16 474 2501 488 ?39 489 467 486 0 0 1 30 487 268
5 0 490 486 491 0 +-.0595598226964474 -.003834379836916925 .00508 0 -1 0 16 490
 2683 492 ?493 494 495 487 0 0 1 30 491 2694 0 494 487 496 0 +-.0883464893631141
 -.02076771497475235 .03386666666666675 .577350269189626 -.577350269189626 -.577
350269189626 16 494 2692 497 ?56 498 490 491 0 0 1 30 496 2703 0 498 491 499 0 +
-.0426264893631141 -.0377010483080857 -.01185333333333332 .577350269189625 .5773
50269189626 -.577350269189626 16 498 2701 500 ?50 49 494 496 0 0 1 30 499 2712 0
 49 496 22 0 +-.0544798226964474 -.00383437983691692 0 0 1 0 16 49 2710 501 ?41
 27 498 499 0 0 1 30 22 2721 0 27 499 8 0 --.0392398226964474 .0266456219675852
 -.01524 .577350269189625 -.577350269189626 -.577350269189626 16 27 2719 502 ?29
 11 49 22 0 0 1 81 1 502 2777 31 27 0 0 25 497 503 80 7 CCCCCDI12 legal_owners0
 17 1 lCZ1 31 504 505 9000 0 0 0 0 3 6 0 0 0 FFTFTFTTFFFFFFFFF1 81 1 25 2776 31
 11 0 0 500 502 506 81 1 497 2778 31 494 0 0 502 501 507 82 255 3 503 95 2 1 81
 1 501 2779 31 49 0 0 497 492 508 82 3 507 95 3 1 81 1 492 2780 31 490 0 0 501 5
09 510 82 3 508 95 4 1 81 1 509 2781 31 511 0 0 492 512 513 82 3 510 95 5 1 16 5
11 2166 509 ?514 515 489 516 0 0 1 81 1 512 2782 31 517 0 0 509 488 518 82 3 513
 95 6 1 16 517 2067 512 ?47 519 318 319 0 0 1 81 1 488 2783 31 474 0 0 512 520 5
21 82 3 518 95 7 1 81 1 520 2784 31 470 0 0 488 522 523 82 3 521 95 8 1 16 470 2
379 520 ?469 524 525 526 0 0 1 81 1 522 2785 31 527 0 0 520 528 529 82 3 523 95
 9 1 16 527 2707 522 ?46 495 461 530 0 0 1 81 1 528 2786 31 519 0 0 522 531 532
 82 3 529 95 10 1 16 519 2676 528 ?112 533 517 534 0 0 1 81 1 531 2787 31 20 0 5
35 528 536 537 82 3 532 95 11 1 14 20 2737 535 ?0 538 539 6 7 +0 0 0 538 24 81 1
 535 2837 420 20 531 0 540 0 541 81 1 536 2788 31 321 0 542 531 543 544 82 3 537
 95 0 2 14 321 2145 542 ?545 546 547 6 311 +0 0 545 546 24 81 1 542 2830 420 321
 536 0 548 549 550 81 1 543 2789 31 468 0 551 536 552 553 82 3 544 95 1 2 14 468
 2484 551 ?455 545 447 6 554 +0 0 455 545 24 81 1 551 2832 420 468 543 0 549 555
 556 81 1 552 2790 31 545 0 549 543 557 558 82 3 553 95 2 2 14 545 2482 549 ?468
 321 35 6 21 +0 0 468 321 24 81 1 549 2831 420 545 552 0 542 551 559 81 1 557 27
91 31 560 0 561 552 562 563 82 3 558 95 3 2 14 560 2141 561 ?546 564 565 6 566 +
0 0 546 564 24 81 1 561 2828 420 560 557 0 567 548 568 81 1 562 2792 31 400 0 40
8 557 569 570 82 3 563 95 4 2 81 1 408 2802 420 400 562 0 404 399 571 81 1 569 2
793 31 415 0 416 562 0 572 82 3 570 95 5 2 81 1 416 2798 420 415 569 0 418 414 5
73 82 3 572 95 6 2 80 1 420 0 574 8001 0 0 0 0 3 5 0 0 0 FFFFTFTFFFFFFFFFF2 81 1
 414 2799 420 288 575 0 416 411 576 83 255 3 573 .615686274509804 .8117647058823
53 .929411764705882 81 1 575 2668 31 288 0 414 421 55 577 81 1 411 2800 420 405
 578 0 414 404 579 83 3 576 .615686274509804 .811764705882353 .929411764705882 8
1 1 578 2299 31 405 0 411 580 581 582 81 1 404 2801 420 402 583 0 411 408 584 83
 3 579 .615686274509804 .811764705882353 .929411764705882 81 1 583 2664 31 402 0
 404 585 421 586 83 3 584 .615686274509804 .811764705882353 .929411764705882 81
 1 585 2663 31 587 0 588 589 583 590 81 1 421 2666 31 17 0 418 583 575 591 82 3
 586 94 11 2 82 3 591 94 13 2 14 587 2133 588 ?592 282 593 6 594 +0 0 592 282 24
 81 1 588 2824 420 587 585 0 595 596 597 81 1 589 2662 31 564 0 567 598 585 599
 82 3 590 94 10 2 14 564 2139 567 ?560 600 601 6 602 +0 0 560 600 24 81 1 567 28
27 420 564 589 0 603 561 604 81 1 598 2661 31 600 0 603 605 589 606 82 3 599 94
 9 2 14 600 2137 603 ?564 592 607 6 608 +0 0 564 592 24 81 1 603 2826 420 600 59
8 0 596 567 609 81 1 605 2659 31 592 0 596 610 598 611 82 3 606 94 8 2 14 592 21
35 596 ?600 587 612 6 613 +0 0 600 587 24 81 1 596 2825 420 592 605 0 588 603 61
4 81 1 610 2658 31 538 0 540 615 605 616 82 3 611 94 6 2 14 538 2492 540 ?20 617
 618 6 619 +0 0 20 617 24 81 1 540 2836 420 538 610 0 620 535 621 81 1 615 2657
 31 617 0 620 622 610 623 82 3 616 94 5 2 14 617 2490 620 ?538 476 624 6 625 +0
 0 538 476 24 81 1 620 2835 420 617 615 0 626 540 627 81 1 622 2656 31 455 0 555
 628 615 629 82 3 623 94 4 2 14 455 2486 555 ?476 468 452 6 630 +0 0 476 468 24
 81 1 555 2833 420 455 622 0 551 626 631 81 1 628 2653 31 476 0 626 632 622 633
 82 3 629 94 3 2 14 476 2488 626 ?617 455 471 6 634 +0 0 617 455 24 81 1 626 283
4 420 476 628 0 555 620 635 81 1 632 2651 31 533 0 0 636 628 637 82 3 633 94 0 2
 16 533 2337 632 ?638 639 519 640 0 0 1 81 1 636 2650 31 318 0 0 294 632 641 82
 3 637 94 31 1 16 318 2456 636 ?148 517 309 310 0 0 1 81 1 294 2649 31 291 0 0 6
42 636 643 82 3 641 94 30 1 81 1 642 2648 31 644 0 0 304 294 645 82 3 643 94 29
 1 16 644 2155 642 ?646 647 648 649 0 0 1 81 1 304 2647 31 302 0 0 650 642 651 8
2 3 645 94 28 1 81 1 650 2645 31 652 0 0 653 304 654 82 3 651 94 27 1 16 652 242
0 650 ?442 655 656 657 0 0 1 81 1 653 2644 31 647 0 0 658 650 659 82 3 654 94 25
 1 16 647 2392 653 ?140 660 644 661 0 0 1 81 1 658 2643 31 648 0 0 662 653 663 8
2 3 659 94 24 1 16 648 2442 658 ?144 644 664 665 0 0 1 81 1 662 2642 31 524 0 0
 666 658 667 82 3 663 94 23 1 16 524 2382 662 ?100 668 470 669 0 0 1 81 1 666 26
41 31 670 0 0 671 662 672 82 3 667 94 22 1 16 670 2349 666 ?673 674 655 675 0 0
 1 81 1 671 2640 31 525 0 0 676 666 677 82 3 672 94 21 1 16 525 2369 671 ?678 47
0 679 680 0 0 1 81 1 676 2639 31 450 0 0 681 671 682 82 3 677 94 20 1 16 450 241
4 676 ?108 440 683 684 0 0 1 81 1 681 2638 31 674 0 0 685 676 686 82 3 682 94 19
 1 16 674 2352 681 ?128 679 670 687 0 0 1 81 1 685 2637 31 688 0 0 689 681 690 8
2 3 686 94 18 1 16 688 2400 685 ?96 683 668 691 0 0 1 81 1 689 2636 31 683 0 0 6
92 685 693 82 3 690 94 17 1 16 683 2409 689 ?88 450 688 694 0 0 1 81 1 692 2635
 31 679 0 0 695 689 696 82 3 693 94 16 1 16 679 2366 692 ?104 525 674 697 0 0 1
 81 1 695 2634 31 483 0 0 462 692 698 82 3 696 94 15 1 16 483 2517 695 ?116 477
 0 485 0 0 1 81 1 462 2633 31 443 0 0 699 695 700 82 3 698 94 14 1 81 1 699 2632
 31 655 0 0 701 462 702 82 3 700 94 13 1 16 655 2345 699 ?120 670 652 703 0 0 1
 81 1 701 2631 31 668 0 0 704 699 705 82 3 702 94 12 1 16 668 2395 701 ?124 688
 524 706 0 0 1 81 1 704 2630 31 461 0 0 707 701 708 82 3 705 94 11 1 16 461 2450
 704 ?92 527 463 709 0 0 1 81 1 707 2629 31 446 0 0 710 704 711 82 3 708 94 10 1
 16 446 2434 707 ?76 443 440 712 0 0 1 81 1 710 2627 31 495 0 0 713 707 714 82 3
 711 94 9 1 16 495 2464 710 ?68 490 527 715 0 0 1 81 1 713 2626 31 463 0 0 449 7
10 716 82 3 714 94 7 1 16 463 2445 713 ?80 461 443 717 0 0 1 81 1 449 2624 31 44
0 0 0 481 713 718 82 3 716 94 6 1 81 1 481 2622 31 477 0 0 479 449 719 82 3 718
 94 4 1 82 3 719 94 2 1 17 80 0 612 444 720 77 721 463 0 442 +30 717 2447 0 463
 464 709 0 -.00478684397021929 .0791389553009185 .03725333333333335 .57735026918
9626 -.577350269189626 -.577350269189626 30 464 2438 0 443 712 717 0 +-.00875982
269644738 .0469656219675852 .09652 1 0 0 30 709 2452 0 461 717 530 0 +.038653510
63688595 .0452722886342519 .0982133333333333 .577350269189626 -.577350269189626
 .577350269189626 30 530 2461 0 527 709 715 0 +.03696017730355265 .0418856219675
852 0 1 0 0 30 715 2466 0 495 530 485 0 +.02172017670205195 .0266456213660845 -.
0152400006015007 .577350269189626 .577350269189626 .577350269189626 30 485 2553
 0 483 715 484 0 --.0392398226964474 -.034314381641419 .11684 -.577350269189625
 -.577350269189626 -.577350269189626 30 712 2435 0 446 451 464 0 +-.059559822696
4474 .0469656219675852 .00508 -1 0 0 30 451 2433 0 440 684 712 0 +-.054479822696
4474 .0469656219675852 .1016 0 0 1 30 684 2416 0 450 694 451 0 +-.05447982269644
74 -.054634381641419 .09652 -1 0 0 30 694 2411 0 683 691 684 0 +.042040177303552
65 -.049554381641419 .1016 -.577350269189626 -.577350269189626 -.577350269189626
 30 691 2402 0 688 706 694 0 -.0251068433687186 -.037701047706585 .1134533339348
34 -.577350269189626 .577350269189626 .577350269189626 30 706 2397 0 668 669 691
 0 +.0251068433687186 .03003228803275115 .113453333934834 -.577350269189626 -.57
7350269189626 .577350269189626 30 669 2384 0 524 526 706 0 +-.0595598226964474 .
0469656219675852 .09652 0 1 0 30 526 2381 0 470 680 669 0 +-.0595598226964474 .0
4188562196758515 0 0 0 -1 30 680 2371 0 525 697 526 0 --.0544798226964474 -.0546
34381641419 .1016 .577350269189626 -.577350269189626 .577350269189626 30 697 236
8 0 679 687 680 0 --.0561731560297807 -.0529410483080857 .0982133333333333 .5773
50269189626 -.577350269189626 -.577350269189626 30 687 2354 0 674 675 697 0 +.03
696017730355265 -.049554381641419 .1016 1 0 0 30 675 2351 0 670 703 687 0 +-.054
4798226964474 -.049554381641419 .1016 0 -1 0 30 703 2347 0 655 661 675 0 +-.0087
5982269644737 .0418856219675852 .1016 -1 0 0 30 661 2200 0 647 649 703 0 +.03696
017730355265 .0469656219675852 .1016 .577350269189626 -.577350269189626 -.577350
269189626 30 649 2201 0 644 665 661 0 -.0403468439702193 -.0512477149747524 .098
2133333333333 .577350269189626 .577350269189626 -.577350269189626 30 665 2202 0
 648 722 649 0 +.0708268439702193 .0130989553009185 .03386666666666665 .57735026
9189626 -.577350269189626 .577350269189626 30 722 2203 0 664 723 665 0 +.0369601
7730355265 -.054634381641419 .00508 -.707106781186548 -.707106781186548 0 16 664
 2163 724 ?725 648 515 722 0 0 1 30 723 2204 0 515 516 722 0 +.03950017730355265
 -.049554381641419 .00254 .707106781186548 837577633256975e-30 .707106781186548
 16 515 2164 726 ?727 664 511 723 0 0 1 30 516 2205 0 511 728 723 0 --.022306489
36311405 -.0868077149747524 .03725333333333335 .577350269189626 -.57735026918962
6 .577350269189626 30 728 2206 0 489 657 516 0 +.03696017730355265 -.05463438164
1419 .00508 -837577633256975e-30 -.707106781186548 .707106781186548 16 489 2170
 729 ?730 511 474 728 0 0 1 30 657 2117 0 652 731 728 0 +.03696017730355265 .046
9656219675852 .1016 0 0 -1 30 731 2112 0 656 732 657 0 +.04204017730355265 -.003
834379836916925 .09652 0 -1 0 16 656 2110 733 ?734 652 735 731 0 0 1 30 732 2109
 0 735 736 731 0 +.04204017730355265 -.049554381641419 0 0 0 -1 16 735 2107 737
 ?136 656 738 732 0 0 1 30 736 2105 0 738 739 732 0 +.04204017730355265 .0469656
219675852 .00508 0 1 0 16 738 2103 740 ?741 735 639 736 0 0 1 30 739 2101 0 639
 640 736 0 +.04204017730355265 .04188562196758515 .1016 0 0 1 16 639 2099 742 ?7
43 738 533 739 0 0 1 30 640 2087 0 533 534 739 0 +.03696017730355265 -.003834379
83691692 .1016 0 1 0 30 534 2078 0 519 319 640 0 +-.0595598226964474 -.049554381
641419 .1016 0 0 1 30 319 2069 0 517 310 534 0 +-.00875982269644737 -.0495543816
41419 0 -1 0 0 81 1 742 2271 31 639 0 0 726 737 744 17 743 0 412 734 741 137 745
 639 0 746 +15 412 2096 0 743 405 747 17 734 0 412 136 743 129 746 656 0 0 +17 7
41 0 412 743 136 141 748 738 0 745 +17 745 0 612 720 140 141 743 639 0 0 -17 746
 0 593 749 750 137 734 656 0 0 -15 593 2134 0 751 587 0 17 749 0 593 124 746 89
 140 647 0 460 -17 750 0 593 746 96 129 646 644 0 734 -17 96 0 593 750 751 93 75
2 688 0 646 +17 646 0 607 88 132 93 750 644 0 753 +15 607 2138 0 646 600 0 17 88
 0 607 754 646 85 753 683 0 295 +17 132 0 607 646 755 129 136 735 0 750 -17 753
 0 624 752 756 93 88 683 0 0 -15 624 2491 0 752 617 0 17 752 0 624 757 753 125 9
6 688 0 0 -17 756 0 624 753 758 85 108 450 0 0 -17 758 0 624 756 759 105 104 679
 0 0 -17 108 0 760 152 295 105 756 450 0 761 +15 760 1580 0 295 288 762 17 152 0
 760 308 108 149 761 302 0 763 +17 295 0 760 108 156 85 754 291 0 756 +17 761 0
 565 104 763 105 152 302 0 758 -15 565 2142 0 764 560 0 17 104 0 565 678 761 101
 758 679 0 759 +17 763 0 565 761 56 149 514 511 0 765 -17 56 0 565 763 764 51 61
 494 0 514 +17 514 0 547 50 765 51 763 511 0 766 +17 765 0 547 514 160 149 308 3
05 0 0 -15 547 2146 0 514 321 0 17 160 0 547 765 767 157 164 309 0 308 -17 308 0
 760 180 152 157 765 305 0 768 +17 180 0 760 769 308 177 768 770 0 771 +17 768 0
 332 164 771 157 180 770 0 0 -15 332 1610 0 768 325 0 17 164 0 332 264 768 161 1
60 309 0 772 +17 771 0 332 768 264 177 769 773 0 0 -16 770 2024 774 ?180 775 776
 777 775 775 1 81 1 774 2307 31 770 0 0 307 778 779 16 775 1583 778 ?772 773 770
 777 770 770 1 16 776 1474 780 ?781 770 782 783 0 0 1 31 777 1585 0 775 783 784
 0 +-.03829767554998395 -.054634381641419 .0143627803772688 0 1 0 0 0 1 .0127 31
 783 1476 0 776 785 777 0 +-.038297675549984 -.054634381641419 .0463455282151699
 0 1 0 0 0 1 .0127 31 784 1588 0 773 777 786 0 +-.03829767554998395 -.0546343816
41419 .0158503483980894 0 1 0 0 0 1 .0127 16 773 1586 787 ?769 788 775 784 0 0 1
 31 786 1700 0 788 784 789 0 +.01489668701393622 -.054634381641419 .082451757479
4265 0 1 0 0 0 1 .0127 16 788 1698 790 ?791 792 773 786 0 0 1 31 789 1703 0 792
 786 793 0 +.0148829445242886 -.054634381641419 .0816753059625626 0 1 0 0 0 1 .0
127 16 792 1701 794 ?795 796 788 789 0 0 1 31 793 1818 0 796 789 298 0 +.0146754
89351369 -.054634381641419 .0515480760538732 0 1 0 0 0 1 .0127 16 796 1816 797 ?
798 286 792 793 0 0 1 31 298 1821 0 286 793 287 0 +.01467194369802118 -.05463438
1641419 .0519239157438278 0 1 0 0 0 1 .0127 16 286 1819 799 ?800 280 796 298 0 0
 1 81 1 799 1860 31 286 0 0 797 167 801 17 800 0 289 798 798 269 172 286 0 0 +15
 289 1813 0 798 288 802 17 798 0 289 800 800 169 272 796 0 0 +17 172 0 803 272 2
72 169 800 286 0 798 -15 803 1843 0 272 804 0 17 272 0 803 172 172 269 798 796 0
 800 -14 804 1844 805 ?282 330 803 6 333 -0 0 282 330 24 81 1 805 2822 420 804 8
06 0 807 595 808 14 282 1965 595 ?587 804 278 6 809 -0 0 587 804 24 14 330 1726
 807 ?804 325 810 6 326 -0 0 804 325 24 54 333 1850 0 804 809 326 0 +.0146737165
2469508 -.054634381641419 .0517359958988505 .999955503251146 0 .0094335315628684
5 .0001879282071715495 .0127 .00943353156286845 0 -.999955503251146 54 809 1971
 0 282 0 333 0 +.01479529520221524 -.054634381641419 .0225444119423628 1 0 0 -.0
003718920052051545 .0127 0 0 -1 81 1 807 2821 420 330 811 0 329 805 812 15 810 1
725 0 268 330 0 17 268 0 810 176 176 265 791 788 0 795 -17 176 0 810 268 268 173
 795 792 0 791 -17 791 0 802 795 795 173 268 788 0 0 +17 795 0 802 791 791 265 1
76 792 0 0 +15 802 1695 0 791 288 760 81 1 811 1739 31 330 0 807 267 790 813 81
 1 329 2820 420 325 581 0 335 807 814 83 3 812 .615686274509804 .811764705882353
 .929411764705882 81 1 581 2303 31 325 0 329 578 301 815 81 1 335 2819 420 331 8
16 0 339 329 817 83 3 814 .615686274509804 .811764705882353 .929411764705882 81
 1 816 1512 31 331 0 335 259 818 819 81 1 339 2818 420 336 820 0 343 335 821 83
 3 817 .615686274509804 .811764705882353 .929411764705882 81 1 820 1405 31 336 0
 339 822 183 823 81 1 343 2817 420 340 824 0 347 339 825 83 3 821 .6156862745098
04 .811764705882353 .929411764705882 81 1 824 1318 31 340 0 343 187 826 827 81 1
 347 2816 420 344 828 0 351 343 829 83 3 825 .615686274509804 .811764705882353 .
929411764705882 81 1 828 1213 31 344 0 347 191 830 831 81 1 351 2815 420 348 832
 0 355 347 833 83 3 829 .615686274509804 .811764705882353 .929411764705882 81 1
 832 1112 31 348 0 351 195 834 835 81 1 355 2814 420 352 836 0 359 351 837 83 3
 833 .615686274509804 .811764705882353 .929411764705882 81 1 836 1014 31 352 0 3
55 199 838 839 81 1 359 2813 420 356 840 0 363 355 841 83 3 837 .615686274509804
 .811764705882353 .929411764705882 81 1 840 919 31 356 0 359 203 842 843 81 1 36
3 2812 420 360 844 0 367 359 845 83 3 841 .615686274509804 .811764705882353 .929
411764705882 81 1 844 827 31 360 0 363 235 846 847 81 1 367 2811 420 364 848 0 3
71 363 849 83 3 845 .615686274509804 .811764705882353 .929411764705882 81 1 848
 737 31 364 0 367 231 850 851 81 1 371 2810 420 368 852 0 375 367 853 83 3 849 .
615686274509804 .811764705882353 .929411764705882 81 1 852 653 31 368 0 371 854
 211 855 81 1 375 2809 420 372 856 0 379 371 857 83 3 853 .615686274509804 .8117
64705882353 .929411764705882 81 1 856 589 31 372 0 375 227 858 859 81 1 379 2808
 420 376 860 0 383 375 861 83 3 857 .615686274509804 .811764705882353 .929411764
705882 81 1 860 510 31 376 0 379 862 215 863 81 1 383 2807 420 380 864 0 387 379
 865 83 3 861 .615686274509804 .811764705882353 .929411764705882 81 1 864 453 31
 380 0 383 866 862 867 81 1 387 2806 420 384 868 0 391 383 869 83 3 865 .6156862
74509804 .811764705882353 .929411764705882 81 1 868 398 31 384 0 387 870 866 871
 81 1 391 2805 420 388 872 0 395 387 873 83 3 869 .615686274509804 .811764705882
353 .929411764705882 81 1 872 345 31 388 0 391 874 870 875 81 1 395 2804 420 392
 876 0 399 391 877 83 3 873 .615686274509804 .811764705882353 .929411764705882 8
1 1 876 294 31 392 0 395 878 874 879 81 1 399 2803 420 396 880 0 408 395 881 83
 3 877 .615686274509804 .811764705882353 .929411764705882 81 1 880 243 31 396 0
 399 219 882 883 83 3 881 .615686274509804 .811764705882353 .929411764705882 81
 1 219 242 31 217 0 0 223 880 884 81 1 882 245 31 885 0 0 880 886 887 82 3 883 1
2 0 2 16 885 205 882 ?220 888 889 890 0 0 1 81 1 886 246 31 889 0 0 882 878 891
 82 3 887 12 0 1 16 889 202 886 ?224 885 892 893 0 0 1 81 1 878 293 31 892 0 0 8
86 876 894 82 3 891 12 1 1 16 892 279 878 ?895 889 896 897 0 0 1 82 3 894 16 0 1
 17 895 0 397 895 895 0 898 892 0 0 +16 896 330 874 ?899 892 900 901 0 0 1 31 89
7 272 0 892 890 901 0 +.04204017730355265 -.00460378940700526 .0769243463873863
 1 0 0 0 0 -1 .01183849025141024 31 890 207 0 885 893 897 0 +-.00754652558572939
 -.000570958156075402 .1016 0 0 1 1 0 0 .0130925685879468 31 901 323 0 896 897 9
02 0 +.04204017730355265 -.00485421438163285 .0280734630509387 1 0 0 0 0 -1 .012
7 31 902 376 0 900 901 903 0 --.0353766977787018 -.0269264355301857 0 0 0 1 1 0
 0 .01269469113661906 16 900 383 870 ?904 896 905 902 0 0 1 31 903 431 0 905 902
 906 0 -.0194508731365204 -.02756396494805815 0 0 0 1 1 0 0 .0127 16 905 438 866
 ?907 900 908 903 0 0 1 31 906 488 0 908 903 909 0 +-.00847176233103391 .0281438
5667836395 0 0 0 1 1 0 0 .0127 16 908 495 862 ?910 905 434 906 0 0 1 31 909 550
 0 888 906 911 0 +.0223062988370657 .0469656219675852 .0775844976305962 0 1 0 0
 0 1 .0127 16 888 548 912 ?228 438 885 909 0 0 1 31 911 553 0 438 909 913 0 +.02
23062988370657 .0469656219675852 .0760969147086144 0 1 0 0 0 1 .0127 16 438 551
 858 ?216 430 888 911 0 0 1 31 913 631 0 434 911 914 0 +-.03310567140579225 .046
9656219675852 .0768407061696053 0 1 0 0 0 1 .0126934689175924 16 434 638 854 ?43
3 908 660 913 0 0 1 31 914 698 0 430 913 915 0 -.0223022512165941 .0469656219675
852 .0222255496663985 0 1 0 0 0 1 .0127 16 430 696 916 ?427 917 438 914 0 0 1 31
 915 701 0 917 914 918 0 -.0223062988370657 .0469656219675852 .0218006279319525
 0 1 0 0 0 1 .0127 16 917 699 850 ?429 426 430 915 0 0 1 31 918 788 0 426 915 91
9 0 --.03384945914149135 .0469656219675852 .0209653353374769 0 1 0 0 0 1 .0127 1
6 426 786 920 ?423 921 917 918 0 0 1 31 919 791 0 921 918 922 0 --.0338494591414
9135 .0469656219675852 .02189213651601775 0 1 0 0 0 1 .0127 16 921 789 846 ?425
 923 426 919 0 0 1 31 922 880 0 923 919 924 0 +-.0595598226964474 .0241657625883
8175 .0746093466877937 1 0 0 0 0 -1 .0127 16 923 878 925 ?926 927 921 922 0 0 1
 31 924 883 0 927 922 928 0 +-.0595598226964474 .02416576258838175 .075353138148
7846 1 0 0 0 0 -1 .0127 16 927 881 842 ?929 930 923 924 0 0 1 31 928 975 0 930 9
24 931 0 +-.0595598226964474 -.02630037799865965 .0757250338792801 1 0 0 0 0 -1
 .0127 16 930 973 932 ?933 934 927 928 0 0 1 31 931 978 0 934 928 935 0 +-.05955
98226964474 -.02630037799865965 .0749812424182892 1 0 0 0 0 -1 .0127 16 934 976
 838 ?936 937 930 931 0 0 1 31 935 1073 0 937 931 938 0 +-.0595598226964474 -.00
2982385922223565 .0489487797021866 1 0 0 0 0 -1 .0127 16 937 1071 939 ?940 941 9
34 935 0 0 1 31 938 1076 0 941 935 942 0 +-.0595598226964474 -.00298238592222356
5 .0467174202203751 1 0 0 0 0 -1 .0127 16 941 1074 834 ?943 944 937 938 0 0 1 31
 942 1174 0 944 938 945 0 +-.0595598226964474 .02416190245378155 .02103500374421
61 1 0 0 0 0 -1 .0127 16 944 1172 946 ?947 948 941 942 0 0 1 31 945 1177 0 948 9
42 949 0 +-.0595598226964474 .02416576258838175 .0214287359267473 1 0 0 0 0 -1 .
0127 16 948 1175 830 ?950 951 944 945 0 0 1 31 949 1279 0 951 945 952 0 +-.05955
98226964474 -.0263192372588733 .0222758556277121 1 0 0 0 0 -1 .01276465897459592
 16 951 1277 953 ?954 955 948 949 0 0 1 31 952 1282 0 955 949 956 0 +-.059559822
6964474 -.02630037799865825 .0213563591842648 1 0 0 0 0 -1 .01276465897459592 16
 955 1280 826 ?957 782 951 952 0 0 1 31 956 1383 0 660 952 785 0 +-.038297675549
984 -.054634381641419 .082047201693058 0 1 0 0 0 1 .0127 16 660 1390 822 ?958 43
4 647 956 0 0 1 31 785 1473 0 782 956 783 0 +-.038297675549984 -.054634381641419
 .0456017442047596 0 1 0 0 0 1 .0127 16 782 1471 818 ?959 776 955 785 0 0 1 81 1
 818 1514 31 782 0 0 816 780 960 17 959 0 762 781 781 181 260 782 0 0 +15 762 14
68 0 959 288 961 17 781 0 762 959 959 257 184 776 0 0 +17 260 0 337 184 184 257
 959 782 0 781 -15 337 1498 0 260 331 0 17 184 0 337 260 260 181 781 776 0 959 -
15 961 1381 0 958 288 0 17 958 0 961 958 958 0 962 660 0 0 +17 962 0 341 962 962
 0 958 660 0 0 -15 341 1396 0 962 336 0 81 1 780 1515 31 776 0 0 818 179 963 82
 3 960 76 0 1 81 1 179 1622 31 177 0 0 780 263 964 82 3 963 76 1 1 81 1 263 1623
 31 261 0 0 179 787 965 82 3 964 80 0 0 81 1 787 1627 31 773 0 0 263 175 966 82
 3 965 80 1 0 81 1 175 1737 31 173 0 0 787 267 967 82 3 966 80 1 1 81 1 267 1738
 31 265 0 0 175 811 968 82 3 967 84 0 0 82 3 968 84 1 0 81 1 822 1404 31 660 0 0
 953 820 969 81 1 953 1321 31 951 0 0 826 822 970 82 3 969 72 0 1 81 1 826 1320
 31 955 0 0 824 953 971 82 3 970 68 1 1 82 3 971 68 0 1 17 957 0 417 954 954 253
 188 955 0 0 +15 417 1274 0 954 415 972 17 954 0 417 957 957 185 256 951 0 0 +17
 188 0 345 256 256 185 957 955 0 954 -15 345 1304 0 256 340 0 17 256 0 345 188 1
88 253 954 951 0 957 -15 972 1169 0 947 415 973 17 947 0 972 950 950 189 252 944
 0 0 +15 973 1068 0 940 415 974 17 940 0 973 943 943 193 248 937 0 0 +15 974 970
 0 933 415 975 17 933 0 974 936 936 197 244 930 0 0 +15 975 875 0 926 415 976 17
 926 0 975 929 929 201 240 923 0 0 +15 976 125 0 469 415 0 17 469 0 976 493 100
 57 465 470 0 977 +17 493 0 976 112 469 59 977 490 0 764 +17 100 0 976 469 112 9
7 978 524 0 465 +17 977 0 539 979 61 57 493 490 0 0 -15 539 2738 0 38 20 0 17 97
9 0 539 38 977 12 26 11 0 0 -17 61 0 539 977 766 59 56 494 0 493 -17 766 0 539 6
1 48 51 50 498 0 0 -17 48 0 539 766 38 42 41 49 0 0 -17 50 0 547 980 514 42 766
 498 0 47 +17 980 0 547 730 50 145 47 517 0 981 -17 47 0 45 41 148 42 980 517 0
 48 +15 45 75 0 47 400 0 17 148 0 45 47 46 145 982 318 0 983 +17 46 0 45 148 41
 62 37 527 0 982 +17 982 0 601 68 983 62 148 318 0 984 -17 983 0 601 982 748 145
 727 515 0 980 -15 601 2140 0 982 564 0 17 748 0 601 983 144 133 741 738 0 755 -
17 727 0 985 725 981 133 983 515 0 0 +15 985 2144 0 727 546 0 17 725 0 985 981 7
27 153 755 664 0 730 +17 981 0 985 727 725 145 730 489 0 0 -17 730 0 547 767 980
 153 981 489 0 0 +17 767 0 547 160 730 161 156 296 0 0 -17 156 0 760 295 772 153
 767 296 0 754 +17 772 0 760 156 769 161 264 775 0 767 +17 754 0 607 755 88 153
 295 291 0 725 -17 755 0 607 132 754 133 725 664 0 727 -17 769 0 760 772 180 261
 771 773 0 0 +17 264 0 332 771 164 261 772 775 0 769 -14 546 2143 548 ?321 560 9
85 6 323 +0 0 321 560 24 81 1 548 2829 420 546 580 0 561 542 986 50 323 2196 987
 546 311 566 0 +.03696017730355265 -.054634381641419 .00508 .577350269189626 -.5
77350269189626 -.577350269189625 .707106781186548 .707106781186548 0 81 2 987 21
97 988 323 0 0 989 320 990 991 50 566 2194 989 560 323 602 0 --.0544798226964474
 -.054634381641419 .1016 .707106781186548 .707106781186548 0 0 0 -1 81 2 989 219
5 988 566 0 0 992 987 993 994 50 602 2192 992 564 566 608 0 +.03696017730355265
 -.00383437983691692 0 .707106781186548 0 -.707106781186548 0 1 0 81 2 992 2193
 988 602 0 0 995 989 996 997 50 608 2190 995 600 602 613 0 +.04204017730355265 -
.049554381641419 .1016 .707106781186548 -.707106781186548 0 0 0 1 81 2 995 2191
 988 608 0 0 998 992 999 1000 50 613 2188 998 592 608 594 0 -.03696017730355265
 .0469656219675852 .1016 -.707106781186548 -.707106781186548 0 0 0 -1 81 2 998 2
189 988 613 0 0 1001 995 1002 1003 50 594 2186 1001 587 613 619 0 -.042040177303
55265 -.003834379836916925 .09652 -.707106781186548 0 -.707106781186548 0 -1 0 8
1 2 1001 2187 988 594 0 0 0 998 1004 1005 50 619 2547 1006 538 594 625 0 +-.0544
798226964474 -.00383437983691692 .1016 -.707106781186548 0 .707106781186547 0 1
 0 81 2 1006 2548 988 619 0 0 1007 19 1008 1009 50 625 2545 1007 617 619 634 0 +
-.00875982269644737 -.049554381641419 .1016 0 -.707106781186548 .707106781186548
 -1 0 0 81 2 1007 2546 988 625 0 0 1010 1006 1011 1012 50 634 2543 1010 476 625
 630 0 +-.0595598226964474 .04188562196758515 .09652 -.577350269189626 .57735026
9189626 .577350269189625 -.707106781186548 -.707106781186548 0 81 2 1010 2544 98
8 634 0 0 1013 1007 1014 1015 50 630 2541 1013 455 634 554 0 --.0087598226964473
8 .0469656219675852 .09652 0 -.707106781186548 -.707106781186548 1 0 0 81 2 1013
 2542 988 630 0 0 1016 1010 1017 1018 50 554 2539 1016 468 630 21 0 +-.059559822
6964474 .04188562196758515 .1016 -.707106781186548 .707106781186548 0 0 0 1 81 2
 1016 2540 988 554 0 0 1019 1013 1020 1021 50 21 2537 1019 545 554 7 0 +-.008759
82269644737 .0418856219675852 0 0 .707106781186548 -.707106781186548 -1 0 0 81 2
 1019 2538 988 21 0 0 320 1016 1022 1023 80 2 988 1024 1025 8044 0 0 0 0 3 5 0 0
 0 FFFFTFFFTTFFFFFFF3 2 81 2 320 2199 988 311 0 0 987 1019 1026 1027 84 255 6 10
22 BAAAAB83 3 1023 0 .00718420489685533 .00508 84 6 1026 BAAAAB83 3 1027 0 .0071
8420489685533 .00508 79 255 17 1025 SDL/TYSA_BLEND_ID84 6 1020 BAAAAB83 3 1021 0
 .00718420489685533 .00508 84 6 1017 BAAAAB83 3 1018 0 .00718420489685533 .00508
 84 6 1014 IAAAIB83 1 1015 .00508 84 6 1011 BAAAAB83 3 1012 0 .00718420489685533
 .00508 81 2 19 2754 988 7 0 0 1006 0 1028 1029 84 6 1008 BAAAAB83 3 1009 0 .007
18420489685532 .00508 84 6 1028 BAAAAB83 3 1029 0 .00718420489685532 .00508 84 6
 1004 BAAAAB83 3 1005 0 .00718420489685533 .00508 84 6 1002 BAAAAB83 3 1003 0 .0
0718420489685533 .00508 84 6 999 BAAAAB83 3 1000 0 .00718420489685533 .00508 84
 6 996 BAAAAB83 3 997 0 .00718420489685533 .00508 84 6 993 BAAAAB83 3 994 0 .007
18420489685533 .00508 84 6 990 IAAAIB83 1 991 .00508 81 1 580 2291 31 546 0 548
 733 578 1030 83 3 986 .615686274509804 .811764705882353 .929411764705882 81 1 7
33 2285 31 656 0 0 740 580 1031 82 3 1030 93 0 2 81 1 740 2282 31 738 0 0 317 73
3 1032 82 3 1031 93 19 1 81 1 317 2281 31 309 0 0 737 740 1033 82 3 1032 93 16 1
 81 1 737 2278 31 735 0 0 742 317 1034 82 3 1033 93 15 1 82 3 1034 93 12 1 17 14
4 0 601 748 68 141 720 648 0 741 +17 68 0 601 144 982 65 984 495 0 720 +17 720 0
 612 80 745 65 144 648 0 721 -15 612 2136 0 444 592 0 17 721 0 35 984 445 65 80
 463 0 0 -15 35 2483 0 37 545 0 17 984 0 35 37 721 62 68 495 0 0 -17 445 0 35 72
1 36 77 76 446 0 0 -17 36 0 35 445 29 73 39 474 0 439 -17 39 0 447 26 439 12 36
 474 0 979 +17 26 0 447 465 39 57 979 11 0 469 +17 37 0 35 29 984 30 46 527 0 38
 -17 38 0 539 48 979 30 29 27 0 0 -17 444 0 612 92 80 81 442 652 0 454 -17 92 0
 612 140 444 89 454 461 0 749 +17 442 0 436 76 84 77 444 652 0 445 +17 140 0 612
 745 92 137 749 647 0 743 +17 112 0 976 100 493 109 764 519 0 678 +17 978 0 618
 1035 472 109 100 524 0 0 -15 618 2493 0 472 538 0 17 1035 0 618 116 978 101 678
 525 0 0 -17 472 0 618 978 478 97 459 477 0 0 +17 478 0 618 472 116 117 673 670
 0 0 -17 116 0 618 478 1035 113 759 483 0 757 +17 673 0 1036 128 120 113 478 670
 0 0 +15 1036 6 0 673 402 0 17 128 0 1036 638 673 125 757 674 0 751 +17 120 0 10
36 673 638 117 456 655 0 453 +17 638 0 1036 120 128 121 751 533 0 456 +17 456 0
 452 460 453 121 120 655 0 0 -17 460 0 452 454 456 89 124 668 0 0 -17 124 0 593
 751 749 121 460 668 0 638 +17 751 0 593 96 124 125 638 533 0 752 -17 757 0 624
 759 752 113 128 674 0 673 -17 759 0 624 758 757 101 116 483 0 1035 -17 678 0 56
5 764 104 109 1035 525 0 978 +17 764 0 565 56 678 59 112 519 0 0 -17 929 0 975 9
26 926 237 204 927 0 0 +17 240 0 361 204 204 237 926 923 0 929 -15 361 905 0 240
 356 0 17 204 0 361 240 240 201 929 927 0 926 -17 936 0 974 933 933 241 200 934
 0 0 +17 244 0 357 200 200 241 933 930 0 936 -15 357 1000 0 244 352 0 17 200 0 3
57 244 244 197 936 934 0 933 -17 943 0 973 940 940 245 196 941 0 0 +17 248 0 353
 196 196 245 940 937 0 943 -15 353 1098 0 248 348 0 17 196 0 353 248 248 193 943
 941 0 940 -17 950 0 972 947 947 249 192 948 0 0 +17 252 0 349 192 192 249 947 9
44 0 950 -15 349 1199 0 252 344 0 17 192 0 349 252 252 189 950 948 0 947 -81 1 8
30 1215 31 948 0 0 828 946 1037 81 1 946 1216 31 944 0 0 830 255 1038 82 3 1037
 64 0 1 81 1 255 1316 31 253 0 0 946 187 1039 82 3 1038 64 1 1 81 1 187 1317 31
 185 0 0 255 824 1040 82 3 1039 68 0 0 82 3 1040 68 1 0 81 1 834 1114 31 941 0 0
 832 939 1041 81 1 939 1115 31 937 0 0 834 251 1042 82 3 1041 60 0 1 81 1 251 12
11 31 249 0 0 939 191 1043 82 3 1042 60 1 1 81 1 191 1212 31 189 0 0 251 828 104
4 82 3 1043 64 0 0 82 3 1044 64 1 0 81 1 838 1016 31 934 0 0 836 932 1045 81 1 9
32 1017 31 930 0 0 838 247 1046 82 3 1045 56 0 1 81 1 247 1110 31 245 0 0 932 19
5 1047 82 3 1046 56 1 1 81 1 195 1111 31 193 0 0 247 832 1048 82 3 1047 60 0 0 8
2 3 1048 60 1 0 81 1 842 921 31 927 0 0 840 925 1049 81 1 925 922 31 923 0 0 842
 243 1050 82 3 1049 52 0 1 81 1 243 1012 31 241 0 0 925 199 1051 82 3 1050 52 1
 1 81 1 199 1013 31 197 0 0 243 836 1052 82 3 1051 56 0 0 82 3 1052 56 1 0 81 1
 846 829 31 921 0 0 844 920 1053 17 425 0 419 423 423 233 208 921 0 0 +17 208 0
 365 236 236 205 425 921 0 423 -15 365 817 0 236 360 0 17 236 0 365 208 208 233
 423 426 0 425 -81 1 920 830 31 426 0 0 846 239 1054 82 3 1053 48 0 1 81 1 239 9
17 31 237 0 0 920 203 1055 82 3 1054 48 1 1 81 1 203 918 31 201 0 0 239 840 1056
 82 3 1055 52 0 0 82 3 1056 52 1 0 81 1 850 739 31 917 0 0 848 916 1057 17 429 0
 424 427 427 229 212 917 0 0 +17 212 0 369 232 232 209 429 917 0 427 -15 369 727
 0 232 364 0 17 232 0 369 212 212 229 427 430 0 429 -81 1 916 740 31 430 0 0 850
 207 1058 82 3 1057 44 0 1 81 1 207 825 31 205 0 0 916 235 1059 82 3 1058 44 1 1
 81 1 235 826 31 233 0 0 207 844 1060 82 3 1059 48 0 0 82 3 1060 48 1 0 81 1 854
 652 31 434 0 0 912 852 1061 17 433 0 373 433 433 0 431 434 0 0 +15 373 648 0 43
3 368 0 81 1 912 592 31 888 0 0 858 854 1062 82 3 1061 40 0 1 81 1 858 591 31 43
8 0 0 856 912 1063 82 3 1062 36 1 1 82 3 1063 36 0 1 17 216 0 377 228 228 213 43
5 438 0 437 +15 377 579 0 216 372 0 17 228 0 377 216 216 225 437 888 0 435 +17 4
37 0 432 435 435 213 228 888 0 0 -81 1 862 509 31 908 0 0 864 860 1064 17 910 0
 409 910 910 0 1065 908 0 0 +15 409 486 0 910 400 1066 17 1065 0 381 1065 1065 0
 910 908 0 0 -15 381 501 0 1065 376 0 15 1066 430 0 1067 400 1068 17 1067 0 1066
 1067 1067 0 907 905 0 0 -15 1068 375 0 1069 400 45 17 1069 0 1068 1069 1069 0 9
04 900 0 0 -17 904 0 389 904 904 0 1069 900 0 0 +15 389 389 0 904 384 0 17 907 0
 385 907 907 0 1067 905 0 0 +15 385 444 0 907 380 0 82 3 1064 32 0 1 81 1 866 45
2 31 905 0 0 868 864 1070 82 3 1070 28 0 1 81 1 870 397 31 900 0 0 872 868 1071
 82 3 1071 24 0 1 31 893 204 0 889 0 890 0 +-.00754652558572939 -330681662608079
e-32 .1016 0 0 1 1 0 0 .0130925685879468 81 1 874 344 31 896 0 0 876 872 1072 17
 899 0 393 899 899 0 1073 896 0 0 +15 393 340 0 899 388 0 17 1073 0 747 1073 107
3 0 899 896 0 0 -15 747 322 0 1073 405 1074 15 1074 271 0 898 405 0 17 898 0 107
4 898 898 0 895 892 0 0 -82 3 1072 20 0 1 15 397 289 0 895 392 0 17 224 0 401 22
0 220 221 1075 889 0 1076 +15 401 233 0 220 396 0 17 220 0 401 224 224 217 1076
 885 0 1075 +17 1075 0 406 1076 1076 217 224 889 0 0 -17 1076 0 406 1075 1075 22
1 220 885 0 0 -15 406 206 0 1076 402 1036 81 1 223 241 31 221 0 0 1077 219 1078
 82 3 884 12 1 0 81 1 1077 178 31 1 0 1079 0 223 1080 82 3 1078 12 0 0 81 1 1079
 2794 1081 1 1077 14 0 0 1082 82 3 1080 6 0 3 80 1 1081 1083 1084 8038 0 0 0 0 0
 0 0 0 0 TTTTTTTTTTTTTFTFT10 81 1 14 2795 1083 1 1079 2 0 0 1085 98 255 6 1082 8
0 97 114 116 32 49 80 1 1083 1086 1087 8017 0 0 0 0 0 0 0 0 0 TTTTTTTTTTTTTFTFT3
 84 6 1085 Part 179 13 1087 SDL/TYSA_NAME79 14 1084 SDL/TYSA_UNAME82 3 879 16 0
 2 82 3 875 20 0 2 82 3 871 24 0 2 82 3 867 28 0 2 81 1 215 587 31 213 0 0 860 2
27 1088 82 3 863 32 0 2 81 1 227 588 31 225 0 0 215 856 1089 82 3 1088 36 0 0 82
 3 1089 36 1 0 82 3 859 36 0 2 81 1 211 735 31 209 0 0 852 231 1090 82 3 855 40
 0 2 81 1 231 736 31 229 0 0 211 848 1091 82 3 1090 44 0 0 82 3 1091 44 1 0 82 3
 851 44 0 2 82 3 847 48 0 2 82 3 843 52 0 2 82 3 839 56 0 2 82 3 835 60 0 2 82 3
 831 64 0 2 82 3 827 68 0 2 81 1 183 1510 31 181 0 0 820 259 1092 82 3 823 72 0
 2 81 1 259 1511 31 257 0 0 183 816 1093 82 3 1092 76 0 0 82 3 1093 76 1 0 82 3
 819 76 0 2 81 1 301 2305 31 296 0 0 581 307 1094 82 3 815 93 12 2 81 1 307 2306
 31 305 0 0 301 774 1095 82 3 1094 93 25 1 82 3 1095 93 26 1 81 1 790 1741 31 78
8 0 0 811 794 1096 82 3 813 84 0 2 81 1 794 1742 31 792 0 0 790 171 1097 82 3 10
96 84 0 1 81 1 171 1855 31 169 0 0 794 271 1098 82 3 1097 84 1 1 81 1 271 1856 3
1 269 0 0 171 806 1099 82 3 1098 88 0 0 81 1 806 1857 31 804 0 805 271 797 1100
 82 3 1099 88 1 0 81 1 797 1859 31 796 0 0 806 799 1101 82 3 1100 88 0 2 82 3 11
01 88 0 1 81 1 595 2823 420 282 276 0 805 588 1102 81 1 276 1978 31 282 0 595 27
4 285 1103 83 3 1102 .615686274509804 .811764705882353 .929411764705882 81 1 285
 1980 31 280 0 0 276 290 1104 82 3 1103 92 0 2 82 3 1104 92 0 1 83 3 808 .615686
274509804 .811764705882353 .929411764705882 81 1 167 1976 31 165 0 0 799 274 110
5 82 3 801 88 1 1 82 3 1105 92 0 0 81 1 778 2308 31 775 0 0 774 163 1106 81 1 16
3 2309 31 161 0 0 778 159 1107 82 3 1106 93 28 1 81 1 159 2310 31 157 0 0 163 71
 1108 82 3 1107 93 13 0 81 1 71 2602 31 69 0 0 159 99 1109 82 3 1108 93 14 0 81
 1 99 2603 31 97 0 0 71 119 1110 82 3 1109 94 0 0 81 1 119 2604 31 117 0 0 99 75
 1111 82 3 1110 94 1 0 81 1 75 2606 31 73 0 0 119 67 1112 82 3 1111 94 2 0 81 1
 67 2607 31 65 0 0 75 79 1113 82 3 1112 94 4 0 81 1 79 2608 31 77 0 0 67 64 1114
 82 3 1113 94 5 0 81 1 64 2609 31 62 0 0 79 91 1115 82 3 1114 94 6 0 81 1 91 261
0 31 89 0 0 64 83 1116 82 3 1115 94 7 0 81 1 83 2611 31 81 0 0 91 123 1117 82 3
 1116 94 8 0 81 1 123 2612 31 121 0 0 83 103 1118 82 3 1117 94 9 0 81 1 103 2613
 31 101 0 0 123 115 1119 82 3 1118 94 10 0 81 1 115 2614 31 113 0 0 103 107 1120
 82 3 1119 94 11 0 81 1 107 2615 31 105 0 0 115 95 1121 82 3 1120 94 12 0 81 1 9
5 2616 31 93 0 0 107 87 1122 82 3 1121 94 13 0 81 1 87 2617 31 85 0 0 95 127 112
3 82 3 1122 94 14 0 81 1 127 2618 31 125 0 0 87 111 1124 82 3 1123 94 15 0 81 1
 111 2619 31 109 0 0 127 473 1125 82 3 1124 94 16 0 81 1 473 2620 31 467 0 0 111
 479 1126 82 3 1125 94 17 0 82 3 1126 94 0 1 82 3 779 93 27 1 17 136 0 412 741 7
34 133 132 735 0 748 +81 1 726 2268 31 515 0 0 729 742 1127 82 3 744 93 5 1 81 1
 729 2267 31 489 0 0 724 726 1128 82 3 1127 93 2 1 81 1 724 2266 31 664 0 0 131
 729 1129 82 3 1128 93 1 1 81 1 131 2265 31 129 0 0 151 724 1130 82 3 1129 93 0
 1 81 1 151 2261 31 149 0 0 139 131 1131 82 3 1130 93 12 0 81 1 139 2259 31 137
 0 0 143 151 1132 82 3 1131 93 8 0 81 1 143 2256 31 141 0 0 147 139 1133 82 3 11
32 93 6 0 81 1 147 2255 31 145 0 0 135 143 1134 82 3 1133 93 3 0 81 1 135 2254 3
1 133 0 0 155 147 1135 82 3 1134 93 2 0 81 1 155 2253 31 153 0 0 290 135 1136 82
 3 1135 93 1 0 82 3 1136 93 0 0 83 3 635 .615686274509804 .811764705882353 .9294
11764705882 83 3 631 .615686274509804 .811764705882353 .929411764705882 83 3 627
 .615686274509804 .811764705882353 .929411764705882 83 3 621 .615686274509804 .8
11764705882353 .929411764705882 83 3 614 .615686274509804 .811764705882353 .9294
11764705882 83 3 609 .615686274509804 .811764705882353 .929411764705882 83 3 604
 .615686274509804 .811764705882353 .929411764705882 83 3 597 .615686274509804 .8
11764705882353 .929411764705882 82 3 582 93 8 2 81 1 55 2769 31 51 0 0 575 32 11
37 82 3 577 94 15 2 81 1 32 2770 31 42 0 0 55 28 1138 82 3 1137 95 0 0 82 3 1138
 95 1 0 79 15 574 SDL/TYSA_COLOUR83 3 571 .615686274509804 .811764705882353 .929
411764705882 83 3 568 .615686274509804 .811764705882353 .929411764705882 83 3 55
9 .615686274509804 .811764705882353 .929411764705882 83 3 556 .615686274509804 .
811764705882353 .929411764705882 83 3 550 .615686274509804 .811764705882353 .929
411764705882 83 3 541 .615686274509804 .811764705882353 .929411764705882 81 1 50
0 2775 31 498 0 0 43 25 1139 82 3 506 95 1 1 81 1 43 2774 31 59 0 0 40 500 1140
 82 3 1139 95 0 1 82 3 1140 95 5 0 79 9 505 BTI/DetId82 3 482 94 1 1 83 3 422 .6
15686274509804 .811764705882353 .929411764705882 141 324 306 324 324 311 82 3 29
3 92 1 1 82 3 277 92 1 0 81 1 33 2772 31 57 0 0 28 40 1141 82 3 1141 95 3 0 82 3
 44 95 4 0 82 3 34 95 2 0 19 18 138 0 1 0 10 6 0 S0 74 4 CI16 index_map_offset0
 0 1 dCCZ20 16 6 0 0 569 19 1079 14 2 535 0 0 0 0 0 0 0 0 0 0 0 0 0 0 80 1 13 42
0 1142 8040 0 0 0 0 3 5 0 0 0 TTTFFFFFFFFFFFFFF2 83 3 15 .615686274509804 .81176
4705882353 .929411764705882 79 17 1142 SDL/TYSA_COLOUR_21 0 
